<svg class="canvas" viewBox="0 0 1920 1080" preserveAspectRatio="xMaxYMid slice" xmlns="http://www.w3.org/2000/svg" version="1.1" xmlns:xlink="http://www.w3.org/1999/xlink"><rect width="1920" height="1080" fill="hsl(180, 65%, 15%)"></rect><defs><linearGradient x1="0.5" y1="0" x2="0" y2="1" id="SvgjsLinearGradient1287"><stop stop-color="#288a8a" offset="0"></stop><stop stop-color="#060614" offset="0.1"></stop></linearGradient><linearGradient x1="0.5" y1="0" x2="0" y2="1" id="SvgjsLinearGradient1288"><stop stop-color="#288a77" offset="0"></stop><stop stop-color="#060914" offset="0.22857142857142856"></stop></linearGradient><linearGradient x1="0.5" y1="0" x2="0" y2="1" id="SvgjsLinearGradient1289"><stop stop-color="#28778a" offset="0"></stop><stop stop-color="#090614" offset="0.3571428571428571"></stop></linearGradient><linearGradient x1="0.5" y1="0" x2="0" y2="1" id="SvgjsLinearGradient1290"><stop stop-color="#c0f2e8" offset="0"></stop><stop stop-color="#425fd7" offset="0.48571428571428565"></stop></linearGradient><linearGradient x1="0.5" y1="0" x2="0" y2="1" id="SvgjsLinearGradient1291"><stop stop-color="#c0f2e8" offset="0"></stop><stop stop-color="#425fd7" offset="0.6142857142857142"></stop></linearGradient><linearGradient x1="0.5" y1="0" x2="0" y2="1" id="SvgjsLinearGradient1292"><stop stop-color="#c0e8f2" offset="0"></stop><stop stop-color="#5f42d7" offset="0.7428571428571429"></stop></linearGradient><linearGradient x1="0.5" y1="0" x2="0" y2="1" id="SvgjsLinearGradient1293"><stop stop-color="#c0f2de" offset="0"></stop><stop stop-color="#427dd7" offset="0.8714285714285713"></stop></linearGradient></defs><path d="M0,-556.0875241786314C67.96306702812016,-534.142014861561,280.1779362967956,-457.52755215588985,407.77840216872096,-424.4144682762092C535.3788680406462,-391.3013843965286,639.6704410027089,-393.3556310519612,765.602795231552,-357.4090209005476C891.5351494603951,-321.462410749134,1040.8198127703965,-244.77660237267247,1163.3725275417798,-208.73480736772754C1285.9252423131632,-172.6930123627826,1374.8145051168158,-173.26613140239397,1500.9190838598524,-141.15825087087794C1627.023662602889,-109.0503703393619,1850.1531806433088,-36.932645294005795,1920,-16.087524178631362L 1920 1080 L 0 1080 Z" fill="url(#SvgjsLinearGradient1287)"></path><path d="M0,-411.792777236508C33.95445314173478,-403.1931844161978,120.57718770710382,-384.1264779791611,203.7267188504087,-360.19522031464686C286.8762499937136,-336.2639626501326,409.42840535749895,-288.95603490630384,498.89718685982933,-268.2052312494227C588.3659683621597,-247.45442759254152,657.8396498004936,-259.19931558912276,740.5394078643911,-235.69039837335984C823.2391659282887,-212.1814811575969,913.2507906936444,-160.56010796955283,995.0957352432143,-127.15172795484501C1076.9406797927843,-93.7433479401372,1162.145712205553,-61.462180041133934,1231.6090751618108,-35.240118285112914C1301.0724381180685,-9.018056529091893,1339.4078572335122,19.168841246649293,1411.8759129807604,30.18064258128112C1484.3439687280086,41.192443915912946,1581.7300618087597,12.11197397802384,1666.4174096452996,30.83068972267803C1751.1047574818394,49.54940546733222,1877.7362349408832,123.88256249478489,1920,142.49293704920626L 1920 1080 L 0 1080 Z" fill="url(#SvgjsLinearGradient1288)"></path><path d="M0,-273.7499731311011C79.48108197671104,-245.72324011079576,312.0281964431216,-147.291704695823,476.88649186026623,-105.58957500926905C641.7447872774109,-63.88744532271511,828.1469878433647,-64.6032158371786,989.149772502868,-23.537195011777435C1150.1525571623713,17.528825813623733,1287.7614952344304,87.74677486778714,1442.9031998172857,140.80654994313795C1598.044904400141,193.86632501848877,1840.4838666362143,269.15230452412925,1920,294.8214554403275L 1920 1080 L 0 1080 Z" fill="url(#SvgjsLinearGradient1289)"></path><path d="M0,-201.1443607099522C57.68677063243988,-180.45333018275286,236.13468337764482,-117.44966595084585,346.1206237946393,-76.99817754675615C456.1065642116338,-36.546689142666445,563.6449158093443,8.669479887040673,659.915642501967,41.56456971458608C756.1863691945897,74.45965954213148,823.4328173593922,88.73674124085068,923.7449839503757,120.37236141851628C1024.0571505413593,152.00798159618188,1142.5384216305565,203.48527786874777,1261.7886420478685,231.3782907805797C1381.0388624651805,259.2713036924116,1529.5444134622262,262.674690328406,1639.246306454248,287.7304388895078C1748.9481994462699,312.78618745060965,1873.2077177423746,366.0490582709102,1920,381.7127821471907L 1920 1080 L 0 1080 Z" fill="url(#SvgjsLinearGradient1290)"></path><path d="M0,-28.347021213123483C52.124898223255904,-9.427493443704652,224.99552487268238,55.4272175885837,312.7493893395354,85.17014540338951C400.50325380638844,114.91307321819532,446.08170907906947,129.9880969227833,526.5231868011181,150.11054567571136C606.9646645231667,170.23299442863942,698.7340191267311,183.22910454565255,795.398255671827,205.9048379209579C892.0624922169228,228.58057129626326,1002.5608651520982,253.34686522174445,1106.5086060716928,286.16494592754344C1210.4563469912873,318.98302663334243,1328.52349181122,365.13419527026116,1419.0847011893945,402.81332215575185C1509.645910567569,440.49244904124254,1566.389979205639,484.5759549448239,1649.87586234074,512.2397072404875C1733.361745475841,539.9034595361511,1874.9793103901234,559.369814481526,1920,568.7958359297337L 1920 1080 L 0 1080 Z" fill="url(#SvgjsLinearGradient1291)"></path><path d="M0,117.03866037403118C51.24207005280522,133.05842579637243,210.88234218263483,185.6919041766356,307.4524203168313,213.15725290807865C404.0224984510278,240.6226016395217,488.2686644234321,254.8203102719081,579.420468805179,281.8307527626895C670.5722731869258,308.84119525347086,762.9666826869556,346.8317524181191,854.3632466073126,375.2199078527669C945.7598105276696,403.60806328741467,1040.3339438415753,427.70699441445197,1127.7998523273213,452.1596853705762C1215.2657608130673,476.6123763267004,1296.6993138769192,489.6933391990165,1379.158697521789,521.9360535895122C1461.6180811666588,554.1787679800078,1532.4159371168384,611.194108678035,1622.5561541965403,645.6159717135502C1712.6963712762422,680.0378347490653,1870.4260256994235,714.6586884544272,1920,728.4672318026027L 1920 1080 L 0 1080 Z" fill="url(#SvgjsLinearGradient1292)"></path><path d="M0,253.89252522709359C47.726371733315915,271.41085682253106,193.60055653866544,321.43995037228507,286.3582303998955,359.0025147997185C379.11590426112554,396.5650792271519,463.87544681322964,450.02540667940275,556.5460431673803,479.26791179169413C649.2166395215309,508.5104169039855,750.3635533563253,505.0912957688535,842.3818085247992,534.4575454734669C934.4000636932732,563.8237951780802,1023.8139335389833,622.9749125509715,1108.655574178224,655.4654100193743C1193.4972148174647,687.9559074877772,1257.577230053647,703.2261117491154,1351.4316523602433,729.4005302838839C1445.2860746668396,755.5749488186524,1577.0207167445092,787.477541118403,1671.7821080178019,812.5119212279856C1766.5434992910946,837.5463013375681,1878.6303513363002,868.4243293224804,1920,879.6068109413793L 1920 1080 L 0 1080 Z" fill="url(#SvgjsLinearGradient1293)"></path></svg>