<?xml version="1.0" encoding="UTF-8"?>
<svg version="1.1" xmlns="http://www.w3.org/2000/svg" width="124" height="124">
<path d="M0 0 C40.92 0 81.84 0 124 0 C124 40.92 124 81.84 124 124 C83.08 124 42.16 124 0 124 C0 83.08 0 42.16 0 0 Z " fill="#EF6E7E" transform="translate(0,0)"/>
<path d="M0 0 C3.0625 0.3125 3.0625 0.3125 4.9375 1.4375 C6.5307099 4.09284983 6.26464032 6.28039518 6.0625 9.3125 C4.7425 9.9725 3.4225 10.6325 2.0625 11.3125 C2.05360415 18.74137719 2.05360415 18.74137719 5.3125 25.125 C6.67375 26.2078125 6.67375 26.2078125 8.0625 27.3125 C13.63196599 33.29967594 18.26705325 40.10103527 18.625 48.5 C18.25254215 54.92238136 15.80544204 58.56955796 11.25 63.125 C3.32251746 68.56542919 -6.58400394 68.42224398 -15.8671875 66.80078125 C-16.89199219 66.55908203 -16.89199219 66.55908203 -17.9375 66.3125 C-17.36 67.37210937 -16.7825 68.43171875 -16.1875 69.5234375 C-15.43728212 70.91134058 -14.68729399 72.29936787 -13.9375 73.6875 C-13.36515625 74.73550781 -13.36515625 74.73550781 -12.78125 75.8046875 C-9.9375 81.0859375 -9.9375 81.0859375 -9.9375 83.3125 C-5.6475 82.9825 -1.3575 82.6525 3.0625 82.3125 C3.0625 81.3225 3.0625 80.3325 3.0625 79.3125 C7.08054691 78.47151344 10.08053543 78.25845055 14.0625 79.3125 C14.0625 80.3025 14.0625 81.2925 14.0625 82.3125 C15.0525 82.3125 16.0425 82.3125 17.0625 82.3125 C17.0625 82.9725 17.0625 83.6325 17.0625 84.3125 C17.97128906 84.2403125 18.88007812 84.168125 19.81640625 84.09375 C28.93209864 83.42059118 37.92079542 83.22543615 47.0625 83.3125 C47.0625 88.9225 47.0625 94.5325 47.0625 100.3125 C6.1425 100.3125 -34.7775 100.3125 -76.9375 100.3125 C-76.9375 94.7025 -76.9375 89.0925 -76.9375 83.3125 C-72.9775 83.3125 -69.0175 83.3125 -64.9375 83.3125 C-65.4325 80.8375 -65.4325 80.8375 -65.9375 78.3125 C-64.9475 78.3125 -63.9575 78.3125 -62.9375 78.3125 C-62.6075 77.3225 -62.2775 76.3325 -61.9375 75.3125 C-60.9475 75.6425 -59.9575 75.9725 -58.9375 76.3125 C-57.9475 75.3225 -57.9475 75.3225 -56.9375 74.3125 C-56.4425 75.3025 -56.4425 75.3025 -55.9375 76.3125 C-53.9575 75.8175 -53.9575 75.8175 -51.9375 75.3125 C-51.9375 76.6325 -51.9375 77.9525 -51.9375 79.3125 C-53.2575 79.3125 -54.5775 79.3125 -55.9375 79.3125 C-54.6175 82.2825 -53.2975 85.2525 -51.9375 88.3125 C-44.3475 88.6425 -36.7575 88.9725 -28.9375 89.3125 C-28.2775 87.3325 -27.6175 85.3525 -26.9375 83.3125 C-26.28338315 81.64086805 -25.62096682 79.97234798 -24.9375 78.3125 C-25.5975 78.3125 -26.2575 78.3125 -26.9375 78.3125 C-27.2675 76.6625 -27.5975 75.0125 -27.9375 73.3125 C-28.9275 74.3025 -29.9175 75.2925 -30.9375 76.3125 C-30.9375 75.6525 -30.9375 74.9925 -30.9375 74.3125 C-32.9175 74.8075 -32.9175 74.8075 -34.9375 75.3125 C-33.25076082 70.81452887 -31.12076108 66.58363698 -28.9375 62.3125 C-29.55496094 62.03277344 -30.17242187 61.75304687 -30.80859375 61.46484375 C-45.41558045 54.55042539 -56.64379914 44.16030669 -63.25 29.375 C-64.63506832 23.2051502 -65.07933629 17.58725083 -61.875 11.9375 C-58.39934825 7.04986472 -53.81829313 4.4780626 -47.9375 3.3125 C-38.39053074 2.26788702 -30.9885759 3.81723454 -22.15576172 7.26586914 C-17.64129031 8.98286 -14.76154769 9.6373131 -9.9375 8.3125 C-9.15375 8.126875 -8.37 7.94125 -7.5625 7.75 C-7.02625 7.605625 -6.49 7.46125 -5.9375 7.3125 C-5.751875 6.136875 -5.751875 6.136875 -5.5625 4.9375 C-4.67067527 1.19183612 -3.84331257 0.40886304 0 0 Z " fill="#342F4F" transform="translate(76.9375,23.6875)"/>
<path d="M0 0 C-1.28046288 2.56092576 -2.43489294 2.81820519 -5 4 C-7.7463658 5.44825 -10.46730339 6.94078738 -13.1875 8.4375 C-13.92419922 8.83259766 -14.66089844 9.22769531 -15.41992188 9.63476562 C-16.12052734 10.02212891 -16.82113281 10.40949219 -17.54296875 10.80859375 C-18.18258545 11.15720459 -18.82220215 11.50581543 -19.48120117 11.86499023 C-21.32225153 13.01570832 -21.32225153 13.01570832 -22 16 C-15.000203 13.98310934 -9.11676467 10.98989151 -2.8203125 7.328125 C0 6 0 6 3 7 C1.62018107 11.13211732 -0.26200362 13.6669732 -3.25 16.8125 C-10.69261384 23.93254059 -10.69261384 23.93254059 -14 33 C-13.01 33 -12.02 33 -11 33 C-8.86628937 30.8201366 -8.86628937 30.8201366 -6.75 28 C-3.4117096 23.76168033 0.00760846 19.69786408 3.6875 15.75390625 C5.13112439 13.82477723 5.43449982 12.30992446 6 10 C8.63574472 8.12723402 10.92992508 7.02335831 14 6 C14 8.66666667 14 11.33333333 14 14 C14.1603561 16.70887268 14.32694606 19.41693966 14.5 22.125 C14.54769531 22.87910156 14.59539062 23.63320313 14.64453125 24.41015625 C14.76246268 26.27347291 14.88115889 28.13674114 15 30 C15.99 30 16.98 30 18 30 C18.33 26.7 18.66 23.4 19 20 C19.66 20 20.32 20 21 20 C20.34 19.34 19.68 18.68 19 18 C18.875 14.375 18.875 14.375 19 11 C24.60752573 15.37387007 28.40038414 19.87062314 32 26 C32.37640625 26.6290625 32.7528125 27.258125 33.140625 27.90625 C34.97336623 32.3714741 34.60554893 37.28807238 34 42 C32.33758622 45.8220674 29.5383947 47.65634381 26.0625 49.875 C15.40284131 53.76809274 2.63123632 50.78059796 -7.4375 46.55859375 C-22.4503551 39.4637028 -37.15680825 29.21014486 -43 13 C-43.65189787 8.65401422 -43.36532996 6.74527311 -41.4375 2.8125 C-30.28888199 -10.05129002 -13.80295813 -4.96126865 0 0 Z " fill="#499591" transform="translate(59,36)"/>
<path d="M0 0 C0.33 0 0.66 0 1 0 C1 21.45 1 42.9 1 65 C-15.875 66.125 -15.875 66.125 -22.4375 66.0625 C-23.69433594 66.05347656 -24.95117188 66.04445313 -26.24609375 66.03515625 C-27.60927734 66.01775391 -27.60927734 66.01775391 -29 66 C-29 65.34 -29 64.68 -29 64 C-29.99 64 -30.98 64 -32 64 C-32 63.01 -32 62.02 -32 61 C-32.8971875 61.2475 -32.8971875 61.2475 -33.8125 61.5 C-37.15649939 62.26434272 -39.75068088 61.8963639 -43 61 C-43 61.99 -43 62.98 -43 64 C-46.01490557 65.00496852 -48.04181692 65.10335303 -51.1875 65.0625 C-52.53908203 65.04896484 -52.53908203 65.04896484 -53.91796875 65.03515625 C-54.60503906 65.02355469 -55.29210937 65.01195313 -56 65 C-57.33838733 62.54429825 -58.67086232 60.08570084 -60 57.625 C-60.3815625 56.92632812 -60.763125 56.22765625 -61.15625 55.5078125 C-64 50.2265625 -64 50.2265625 -64 48 C-62.09927734 48.05220703 -62.09927734 48.05220703 -60.16015625 48.10546875 C-58.46095089 48.13363237 -56.76173102 48.16092975 -55.0625 48.1875 C-54.23169922 48.21263672 -53.40089844 48.23777344 -52.54492188 48.26367188 C-45.80065337 48.34239874 -39.26816789 47.60506137 -33.84375 43.28125 C-33.4003125 42.6934375 -32.956875 42.105625 -32.5 41.5 C-31.80390625 40.61828125 -31.80390625 40.61828125 -31.09375 39.71875 C-29.14587552 36.65780438 -28.81741947 33.91452242 -28.75 30.375 C-28.71132812 29.18003906 -28.71132812 29.18003906 -28.671875 27.9609375 C-29.1380283 23.75445895 -30.55830508 19.96303015 -32 16 C-30.83984375 15.57589844 -29.6796875 15.15179688 -28.484375 14.71484375 C-13.12317256 9.30254608 -13.12317256 9.30254608 0 0 Z " fill="#D4D2D2" transform="translate(123,42)"/>
<path d="M0 0 C4.29 0.66 8.58 1.32 13 2 C13.99389672 4.98169017 13.99454606 6.49723793 13.8125 9.5625 C13.74491289 18.84896857 18.051031 26.14967206 24 33 C24.56332031 33.65742187 25.12664063 34.31484375 25.70703125 34.9921875 C32.17714574 41.99353244 40.45039299 46.89120828 49 51 C47 55 45 59 43 63 C44.32 63.33 45.64 63.66 47 64 C47.99 62.68 48.98 61.36 50 60 C50 62.31 50 64.62 50 67 C50.66 67 51.32 67 52 67 C51.34764225 71.43603269 50.15544109 73.68911782 48 78 C40.41 78 32.82 78 25 78 C21 70 21 70 21 68 C22.32 68 23.64 68 25 68 C24.67 67.01 24.34 66.02 24 65 C20.26921798 64.83397264 20.26921798 64.83397264 17.8125 65.5625 C16.9153125 65.7790625 16.9153125 65.7790625 16 66 C15.67 65.67 15.34 65.34 15 65 C14.505 65.99 14.505 65.99 14 67 C13.01 67 12.02 67 11 67 C11.33 68.65 11.66 70.3 12 72 C8.04 72 4.08 72 0 72 C0 48.24 0 24.48 0 0 Z " fill="#D4D1D1" transform="translate(0,35)"/>
<path d="M0 0 C3.0625 0.3125 3.0625 0.3125 4.9375 1.4375 C6.5307099 4.09284983 6.26464032 6.28039518 6.0625 9.3125 C4.7425 9.9725 3.4225 10.6325 2.0625 11.3125 C2.05360415 18.74137719 2.05360415 18.74137719 5.3125 25.125 C6.67375 26.2078125 6.67375 26.2078125 8.0625 27.3125 C12.8146922 32.42110661 17.90642681 38.71851961 18.15234375 45.95703125 C17.875 48.4375 17.875 48.4375 17.0625 52.3125 C16.7325 52.3125 16.4025 52.3125 16.0625 52.3125 C16.04832031 51.69503906 16.03414063 51.07757813 16.01953125 50.44140625 C15.40001558 39.44081725 9.84836214 31.82029564 2.0625 24.3125 C1.88307837 28.25977588 1.96899311 30.9105513 4.0625 34.3125 C3.0725 33.8175 3.0725 33.8175 2.0625 33.3125 C1.7325 36.2825 1.4025 39.2525 1.0625 42.3125 C-0.9175 42.8075 -0.9175 42.8075 -2.9375 43.3125 C-4.97321286 41.27678714 -4.30626544 37.18682194 -4.4375 34.375 C-4.48041236 29.18547382 -4.48041236 29.18547382 -5.9375 24.3125 C-5.2775 24.3125 -4.6175 24.3125 -3.9375 24.3125 C-3.9375 22.3325 -3.9375 20.3525 -3.9375 18.3125 C-4.700625 18.93125 -5.46375 19.55 -6.25 20.1875 C-8.9375 22.3125 -8.9375 22.3125 -11.9375 24.3125 C-12.636287 25.62928356 -13.30148807 26.96427485 -13.9375 28.3125 C-14.80450889 29.44670031 -15.71161085 30.55115812 -16.65234375 31.625 C-17.17376953 32.22570312 -17.69519531 32.82640625 -18.23242188 33.4453125 C-18.77447266 34.06148437 -19.31652344 34.67765625 -19.875 35.3125 C-24.58303241 40.66892448 -24.58303241 40.66892448 -28.9375 46.3125 C-30.2575 45.9825 -31.5775 45.6525 -32.9375 45.3125 C-32.33692645 41.60755331 -30.7534336 39.5453439 -28.375 36.6875 C-27.66214844 35.81867187 -26.94929688 34.94984375 -26.21484375 34.0546875 C-25.46332031 33.14976563 -24.71179687 32.24484375 -23.9375 31.3125 C-22.43209685 29.48360075 -20.93183579 27.65045311 -19.4375 25.8125 C-18.43203125 24.59046875 -18.43203125 24.59046875 -17.40625 23.34375 C-15.74218479 21.46015519 -15.74218479 21.46015519 -15.9375 19.3125 C-21.73778292 21.04471119 -26.59663723 23.83897496 -31.81640625 26.8515625 C-34.89162879 28.29102837 -36.60700097 28.64741052 -39.9375 28.3125 C-39.875 26.5703125 -39.875 26.5703125 -38.9375 24.3125 C-36.61146901 22.77150447 -34.40045399 21.46261201 -31.9375 20.1875 C-27.2049323 18.03932201 -27.2049323 18.03932201 -23.9375 14.3125 C-21.375 13.6875 -21.375 13.6875 -18.9375 13.3125 C-29.8063772 9.10325295 -40.51649186 5.49770974 -52 9.9375 C-56.03191632 11.99792782 -57.8598742 14.33791151 -59.9375 18.3125 C-60.6015625 16.5390625 -60.6015625 16.5390625 -60.9375 14.3125 C-59.8984375 12.4609375 -59.8984375 12.4609375 -58.3125 10.6875 C-57.55066406 9.80191406 -57.55066406 9.80191406 -56.7734375 8.8984375 C-50.28538553 3.29386495 -39.06763196 3.73510784 -30.9375 4.3125 C-26.79723776 5.17284919 -23.02766085 6.64295859 -19.13671875 8.28125 C-15.54499608 9.43902141 -13.5547339 9.22845193 -9.9375 8.3125 C-9.15375 8.126875 -8.37 7.94125 -7.5625 7.75 C-6.758125 7.5334375 -6.758125 7.5334375 -5.9375 7.3125 C-5.751875 6.136875 -5.751875 6.136875 -5.5625 4.9375 C-4.67067527 1.19183612 -3.84331257 0.40886304 0 0 Z " fill="#19284D" transform="translate(76.9375,23.6875)"/>
<path d="M0 0 C-0.33 0.66 -0.66 1.32 -1 2 C-8.31619154 1.2431526 -8.31619154 1.2431526 -11.8671875 -0.01953125 C-18.27498496 -2.02496412 -25.37955941 -1.93269919 -31.6875 0.3125 C-34.22076102 1.95723544 -34.22076102 1.95723544 -36 5 C-36.78452386 12.71448458 -34.74083051 17.3022416 -30.1875 23.4453125 C-20.62572678 34.94053251 -5.5127093 43.41700247 9.4375 45.47265625 C15.30424553 45.64132518 19.92040323 44.98150245 25 42 C26.93395001 39.09907498 27.30131941 38.10325263 27.625 34.8125 C27.810625 32.9253125 27.810625 32.9253125 28 31 C27.34 31 26.68 31 26 31 C23.6756442 27.04859514 21.64004894 23.28935875 20 19 C19.67 18.67 19.34 18.34 19 18 C18.95907063 15.66702567 18.95758277 13.33294775 19 11 C24.60752573 15.37387007 28.40038414 19.87062314 32 26 C32.37640625 26.6290625 32.7528125 27.258125 33.140625 27.90625 C34.97336623 32.3714741 34.60554893 37.28807238 34 42 C32.33758622 45.8220674 29.5383947 47.65634381 26.0625 49.875 C15.40284131 53.76809274 2.63123632 50.78059796 -7.4375 46.55859375 C-22.4503551 39.4637028 -37.15680825 29.21014486 -43 13 C-43.65189787 8.65401422 -43.36532996 6.74527311 -41.4375 2.8125 C-30.28888199 -10.05129002 -13.80295813 -4.96126865 0 0 Z " fill="#4FA69C" transform="translate(59,36)"/>
<path d="M0 0 C0.66 0 1.32 0 2 0 C2 2.66666667 2 5.33333333 2 8 C2.1603561 10.70887268 2.32694606 13.41693966 2.5 16.125 C2.54769531 16.87910156 2.59539062 17.63320313 2.64453125 18.41015625 C2.76246268 20.27347291 2.88115889 22.13674114 3 24 C3.99 24 4.98 24 6 24 C6.33 21.36 6.66 18.72 7 16 C10.47523757 19.15309476 11.86943134 22.49485518 13 27 C13 31.1016213 12.30520123 32.59887838 9.8125 35.875 C7 38 7 38 4.125 38.8125 C-0.02514039 37.7334635 -1.36729453 35.73185315 -3.98828125 32.4453125 C-7.65707779 27.98576564 -11.88319922 24.04225107 -16 20 C-14.20401626 15.95678032 -11.56018085 13.19503658 -8.55859375 10 C-6.93204664 7.91280171 -6.59975731 6.52110374 -6 4 C-3.5 2.3125 -3.5 2.3125 -1 1 C-0.67 0.67 -0.34 0.34 0 0 Z " fill="#4CA198" transform="translate(71,42)"/>
<path d="M0 0 C1.34757539 10.13177049 1.34757539 10.13177049 -1.546875 14.14453125 C-10.78800232 21.61500461 -22.78496418 25.5647638 -34 29 C-34.91145833 27.60026042 -35.82291667 26.20052083 -36.734375 24.80078125 C-38.3872237 22.44904282 -40.19002426 20.23204992 -42 18 C-41.37134033 17.82460693 -40.74268066 17.64921387 -40.0949707 17.46850586 C-30.07498224 14.6393003 -8.21504143 0 0 0 Z " fill="#EE7080" transform="translate(124,30)"/>
<path d="M0 0 C4.29 0.66 8.58 1.32 13 2 C13.99389672 4.98169017 13.99454606 6.49723793 13.8125 9.5625 C13.71672708 16.83060085 16.78070371 22.64841542 20 29 C12.40151295 29.43837425 8.0155466 28.00388665 0 26 C0 17.42 0 8.84 0 0 Z " fill="#EC7181" transform="translate(0,35)"/>
<path d="M0 0 C0.33 0 0.66 0 1 0 C1 2.31 1 4.62 1 7 C1.66 7 2.32 7 3 7 C2.34764225 11.43603269 1.15544109 13.68911782 -1 18 C-8.59 18 -16.18 18 -24 18 C-28 10 -28 10 -28 8 C-26.02 7.67 -24.04 7.34 -22 7 C-22 5.68 -22 4.36 -22 3 C-20.02 3.66 -18.04 4.32 -16 5 C-14.68 3.68 -13.36 2.36 -12 1 C-11.34 1.99 -10.68 2.98 -10 4 C-8.865625 3.814375 -7.73125 3.62875 -6.5625 3.4375 C-4.7990625 3.2209375 -4.7990625 3.2209375 -3 3 C-2.67 3.33 -2.34 3.66 -2 4 C-1.34 2.68 -0.68 1.36 0 0 Z " fill="#E8922D" transform="translate(49,95)"/>
<path d="M0 0 C3.82669043 3.42388092 5.72278474 6.00724943 7 11 C7.66 11 8.32 11 9 11 C9.48428405 18.14318976 9.48428405 18.14318976 7.375 21.875 C2.44478912 26.28624131 -3.11422057 26.55285553 -9.5078125 26.44921875 C-19.34700702 25.18355055 -28.96192782 20.69363446 -37 15 C-36.34 14.01 -35.68 13.02 -35 12 C-33.35 12.33 -31.7 12.66 -30 13 C-29.236875 12.030625 -28.47375 11.06125 -27.6875 10.0625 C-25.73251185 7.57913668 -25.14349841 7.0478328 -22 6 C-21.26680542 6.7724707 -21.26680542 6.7724707 -20.51879883 7.56054688 C-18.29655717 9.88672997 -16.0549882 12.19333594 -13.8125 14.5 C-13.04357422 15.31082031 -12.27464844 16.12164062 -11.48242188 16.95703125 C-10.73154297 17.72402344 -9.98066406 18.49101563 -9.20703125 19.28125 C-8.5210083 19.99345703 -7.83498535 20.70566406 -7.12817383 21.43945312 C-4.51587488 23.35499917 -3.17217102 23.4455827 0 23 C2.72236536 21.03384724 3.80611744 19.50894173 5 16.375 C5 11.38925893 2.99719639 7.49756241 1 3 C0.505 1.515 0.505 1.515 0 0 Z " fill="#468587" transform="translate(78,56)"/>
<path d="M0 0 C1.89492188 0.01353516 1.89492188 0.01353516 3.828125 0.02734375 C4.79234375 0.03894531 5.7565625 0.05054687 6.75 0.0625 C3.41317292 2.05022713 0.72604128 2.33831506 -3.125 2.5 C-9.20783371 2.93660242 -12.91853531 4.09916132 -17.625 8.0625 C-20.14780462 12.71998545 -20.03126956 16.88658916 -19.25 22.0625 C-14.87636889 35.98242209 -2.56137145 45.32845779 9.75 52.0625 C21.23833394 57.69016633 34.48713668 61.81710288 47.296875 58.37890625 C51.90025249 56.29354164 54.49301261 53.66675427 56.75 49.0625 C57.54682803 45.33024656 57.54682803 45.33024656 57.75 42.0625 C58.08 42.0625 58.41 42.0625 58.75 42.0625 C59.18460538 48.2556266 58.63594968 52.12987038 54.75 57.0625 C48.80780971 63.00469029 43.50068615 64.15863448 35.3125 64.1875 C33.4581388 64.15564594 31.6038252 64.11729286 29.75 64.0625 C29.75 63.7325 29.75 63.4025 29.75 63.0625 C33.38 62.7325 37.01 62.4025 40.75 62.0625 C39.98558594 62.04832031 39.22117188 62.03414062 38.43359375 62.01953125 C19.7053203 61.18566107 2.31296203 53.10637737 -10.65234375 39.55078125 C-12.5577786 37.41763187 -14.42506378 35.26465767 -16.25 33.0625 C-9.00095581 45.14424031 2.24817127 52.16541098 14.75 58.0625 C14.09 58.7225 13.43 59.3825 12.75 60.0625 C-1.51480133 52.51900996 -16.13362085 42.71516923 -22.25 27.0625 C-23.83097206 21.76410714 -24.37255275 16.01234714 -22.37890625 10.7734375 C-19.25883878 5.31076199 -15.48150637 2.48863962 -9.48828125 0.46875 C-6.3099903 -0.10811258 -3.22667742 -0.02987664 0 0 Z " fill="#23244C" transform="translate(36.25,26.9375)"/>
<path d="M0 0 C-0.31059149 3.12733501 -0.60831278 4.61959595 -2.8984375 6.84375 C-11.77476831 12.77997124 -20.69644322 16.75266334 -30.875 19.875 C-31.60082275 20.10268066 -32.32664551 20.33036133 -33.07446289 20.56494141 C-37.04828855 21.72533721 -40.0254848 22.34498803 -44 21 C-45 20 -45 20 -45.0625 16.4375 C-45.041875 15.303125 -45.02125 14.16875 -45 13 C-44.32122803 12.87995605 -43.64245605 12.75991211 -42.94311523 12.63623047 C-30.46754821 10.39136754 -11.40824062 0 0 0 Z " fill="#D6CFD0" transform="translate(124,26)"/>
<path d="M0 0 C0.66 1.65 1.32 3.3 2 5 C1.04287109 6.01320313 1.04287109 6.01320313 0.06640625 7.046875 C-0.75988281 7.93890625 -1.58617188 8.8309375 -2.4375 9.75 C-3.26121094 10.63171875 -4.08492187 11.5134375 -4.93359375 12.421875 C-7.08277154 14.72278011 -7.08277154 14.72278011 -7.4519043 16.94042969 C-8.11256456 19.42298203 -9.13040872 20.62342406 -10.8359375 22.53125 C-11.40570313 23.17707031 -11.97546875 23.82289062 -12.5625 24.48828125 C-13.160625 25.15214844 -13.75875 25.81601562 -14.375 26.5 C-15.55060618 27.82191525 -16.72511951 29.14480335 -17.8984375 30.46875 C-18.42099121 31.05076172 -18.94354492 31.63277344 -19.48193359 32.23242188 C-21.08050211 34.09373356 -22.54844752 36.02263281 -24 38 C-25.32 37.67 -26.64 37.34 -28 37 C-27.39942645 33.29505331 -25.8159336 31.2328439 -23.4375 28.375 C-22.72335938 27.50230469 -22.00921875 26.62960938 -21.2734375 25.73046875 C-19.76292864 23.91630089 -18.24732616 22.10636148 -16.7265625 20.30078125 C-16.01242188 19.43839844 -15.29828125 18.57601562 -14.5625 17.6875 C-13.90378906 16.90761719 -13.24507812 16.12773438 -12.56640625 15.32421875 C-10.87835076 12.81949801 -10.44256424 10.95551518 -10 8 C-9.67 7.67 -9.34 7.34 -9 7 C-16.59 10.96 -24.18 14.92 -32 19 C-32.33 18.34 -32.66 17.68 -33 17 C-32.16750732 16.5560791 -31.33501465 16.1121582 -30.47729492 15.65478516 C-27.3848374 14.00481236 -24.29312454 12.35346074 -21.2019043 10.70117188 C-19.8646347 9.98675127 -18.52707188 9.27287925 -17.18920898 8.55957031 C-15.2646853 7.53334825 -13.34122965 6.50514881 -11.41796875 5.4765625 C-9.68196411 4.549646 -9.68196411 4.549646 -7.91088867 3.60400391 C-1.37047184 0 -1.37047184 0 0 0 Z " fill="#804762" transform="translate(72,32)"/>
<path d="M0 0 C1.65 1.32 3.3 2.64 5 4 C5.66 3.34 6.32 2.68 7 2 C7.99 2 8.98 2 10 2 C10 3.65 10 5.3 10 7 C11.65 6.67 13.3 6.34 15 6 C15.33 6.66 15.66 7.32 16 8 C15.06421005 10.35981813 14.06652192 12.69631264 13 15 C8.05 15 3.1 15 -2 15 C-2 14.34 -2 13.68 -2 13 C-2.99 13 -3.98 13 -5 13 C-5 12.01 -5 11.02 -5 10 C-5.598125 10.165 -6.19625 10.33 -6.8125 10.5 C-9 11 -9 11 -12 11 C-12.66 9.68 -13.32 8.36 -14 7 C-12.68 7 -11.36 7 -10 7 C-9.67 5.35 -9.34 3.7 -9 2 C-6.03824877 2.61277612 -4.61941217 3.25372522 -2 5 C-1.34 3.35 -0.68 1.7 0 0 Z " fill="#EA9329" transform="translate(96,93)"/>
<path d="M0 0 C4.29 0.66 8.58 1.32 13 2 C14.14229879 5.42689636 13.90861076 7.61102218 13.5625 11.1875 C13.46066406 12.27417969 13.35882813 13.36085938 13.25390625 14.48046875 C13.17011719 15.31191406 13.08632812 16.14335938 13 17 C11.20767663 16.69128878 9.41615679 16.37790936 7.625 16.0625 C6.62726562 15.88847656 5.62953125 15.71445312 4.6015625 15.53515625 C2 15 2 15 0 14 C0 9.38 0 4.76 0 0 Z " fill="#D5D0D0" transform="translate(0,35)"/>
<path d="M0 0 C1.89492188 0.01353516 1.89492188 0.01353516 3.828125 0.02734375 C4.79234375 0.03894531 5.7565625 0.05054687 6.75 0.0625 C3.41317292 2.05022713 0.72604128 2.33831506 -3.125 2.5 C-9.20783371 2.93660242 -12.91853531 4.09916132 -17.625 8.0625 C-21.36020134 14.95825632 -19.49221838 23.86368081 -17.4765625 31.14453125 C-12.01916936 44.12756526 2.54331035 52.5254449 14.75 58.0625 C14.09 58.7225 13.43 59.3825 12.75 60.0625 C-1.51480133 52.51900996 -16.13362085 42.71516923 -22.25 27.0625 C-23.83097206 21.76410714 -24.37255275 16.01234714 -22.37890625 10.7734375 C-19.25883878 5.31076199 -15.48150637 2.48863962 -9.48828125 0.46875 C-6.3099903 -0.10811258 -3.22667742 -0.02987664 0 0 Z " fill="#22264B" transform="translate(36.25,26.9375)"/>
<path d="M0 0 C1.609375 0.94921875 1.609375 0.94921875 2.609375 3.94921875 C0.82323182 4.97968597 -0.96972518 5.99835111 -2.765625 7.01171875 C-3.76335938 7.58019531 -4.76109375 8.14867187 -5.7890625 8.734375 C-6.64757812 9.13527344 -7.50609375 9.53617188 -8.390625 9.94921875 C-11.2927167 8.4981729 -12.77920758 6.07061063 -14.7578125 3.54296875 C-16.64226987 1.70359409 -17.82656635 1.36626443 -20.390625 0.94921875 C-21.72395833 0.61588542 -23.05729167 0.28255208 -24.390625 -0.05078125 C-17.29825976 -4.36115334 -7.47370886 -2.57761127 0 0 Z " fill="#468385" transform="translate(51.390625,36.05078125)"/>
<path d="M0 0 C0.66 0.33 1.32 0.66 2 1 C2 8.26 2 15.52 2 23 C2.33 19.37 2.66 15.74 3 12 C3.33 12 3.66 12 4 12 C4.12375 13.0725 4.2475 14.145 4.375 15.25 C4.89643936 18.37863615 5.40088254 20.33480424 7 23 C6.34 22.67 5.68 22.34 5 22 C4.67 24.97 4.34 27.94 4 31 C2.68 31.33 1.36 31.66 0 32 C-2.03571286 29.96428714 -1.36876544 25.87432194 -1.5 23.0625 C-1.54291236 17.87297382 -1.54291236 17.87297382 -3 13 C-2.34 13 -1.68 13 -1 13 C-1 11.02 -1 9.04 -1 7 C-2.65 8.32 -4.3 9.64 -6 11 C-6.66 10.67 -7.32 10.34 -8 10 C-5.36 6.7 -2.72 3.4 0 0 Z " fill="#402E51" transform="translate(74,35)"/>
<path d="M0 0 C0.66 0 1.32 0 2 0 C4 3 4 3 4.3125 6.375 C5.16198611 10.85410859 6.63574209 12.01804412 10 15 C14.7521922 20.10860661 19.84392681 26.40601961 20.08984375 33.64453125 C19.8125 36.125 19.8125 36.125 19 40 C18.67 40 18.34 40 18 40 C17.98582031 39.38253906 17.97164062 38.76507813 17.95703125 38.12890625 C17.45626594 29.23693849 14.00926122 22.55555769 8 16 C6.04753002 14.25965021 4.04868394 12.62963495 2 11 C2.01160156 11.70125 2.02320312 12.4025 2.03515625 13.125 C2.08971184 18.86113102 1.85618377 24.32778253 1 30 C0.67 30 0.34 30 0 30 C0 20.1 0 10.2 0 0 Z " fill="#96516A" transform="translate(75,36)"/>
<path d="M0 0 C1.19230225 0.00132935 1.19230225 0.00132935 2.40869141 0.00268555 C10.9193958 0.17214267 18.71760015 1.92094175 25.4375 7.375 C23.4375 8.375 23.4375 8.375 20.19921875 7.37890625 C18.84110578 6.89855071 17.48303554 6.41807438 16.125 5.9375 C7.14261093 2.96899286 -1.52374743 1.4869758 -10.625 5 C-14.65691632 7.06042782 -16.4848742 9.40041151 -18.5625 13.375 C-19.2265625 11.6015625 -19.2265625 11.6015625 -19.5625 9.375 C-18.5234375 7.5234375 -18.5234375 7.5234375 -16.9375 5.75 C-16.42960937 5.15960938 -15.92171875 4.56921875 -15.3984375 3.9609375 C-10.79337658 -0.0170513 -5.80060158 -0.0115453 0 0 Z " fill="#E6912A" transform="translate(35.5625,28.625)"/>
<path d="M0 0 C0.66 0.33 1.32 0.66 2 1 C0.35 2.98 -1.3 4.96 -3 7 C-1.35 7 0.3 7 2 7 C-0.61941217 8.74627478 -2.03824877 9.38722388 -5 10 C-5 10.66 -5 11.32 -5 12 C-4.34 12.33 -3.68 12.66 -3 13 C-6.76543923 14.05082025 -8.3759721 14.3391456 -11.875 12.4375 C-14 10 -14 10 -14.3125 6.75 C-14.209375 5.8425 -14.10625 4.935 -14 4 C-13.34 4 -12.68 4 -12 4 C-12 4.99 -12 5.98 -12 7 C-11.34 7 -10.68 7 -10 7 C-9.566875 5.7934375 -9.566875 5.7934375 -9.125 4.5625 C-8 2 -8 2 -6 1 C-5.67 1.99 -5.34 2.98 -5 4 C-3.35 2.68 -1.7 1.36 0 0 Z " fill="#D5CDCE" transform="translate(92,14)"/>
<path d="M0 0 C1.90729141 1.83099975 3.73667031 3.67505557 5.40234375 5.73046875 C16.75578277 19.63773757 32.0833893 26.2932507 49 31 C49 31.33 49 31.66 49 32 C31.4284076 31.57237275 16.89163238 21.23272315 5.07421875 9.0078125 C2.39752427 6.03086828 0.77161777 3.99680666 0 0 Z " fill="#CF6274" transform="translate(18,57)"/>
<path d="M0 0 C0.66 0.33 1.32 0.66 2 1 C0.35 1.66 -1.3 2.32 -3 3 C-2.67 3.99 -2.34 4.98 -2 6 C-2.83402344 6.08121094 -3.66804688 6.16242187 -4.52734375 6.24609375 C-9.42113472 7.30852531 -13.2297385 9.70191627 -17.52148438 12.20507812 C-21.16520575 14.25490307 -23.78439019 15.50975704 -28 15 C-27.9375 13.2578125 -27.9375 13.2578125 -27 11 C-24.67396901 9.45900447 -22.46295399 8.15011201 -20 6.875 C-15.2674323 4.72682201 -15.2674323 4.72682201 -12 1 C-10.68 1 -9.36 1 -8 1 C-9.44321835 5.32965506 -12.70820163 6.24454011 -16.5625 8.1875 C-17.27341797 8.55552734 -17.98433594 8.92355469 -18.71679688 9.30273438 C-20.47340227 10.21051032 -22.23614244 11.10639707 -24 12 C-20.67146615 10.72386016 -17.55103895 9.29448756 -14.42578125 7.58203125 C-13.59369141 7.13279297 -12.76160156 6.68355469 -11.90429688 6.22070312 C-10.16246369 5.27431147 -8.42290661 4.32371969 -6.68554688 3.36914062 C-5.85732422 2.92376953 -5.02910156 2.47839844 -4.17578125 2.01953125 C-3.42208252 1.60807861 -2.66838379 1.19662598 -1.8918457 0.77270508 C-1.26753662 0.5177124 -0.64322754 0.26271973 0 0 Z " fill="#2A294E" transform="translate(65,37)"/>
<path d="M0 0 C0.66 0.33 1.32 0.66 2 1 C0.31665638 5.05982873 -2.51113849 8.11310259 -5.375 11.375 C-6.45337052 12.61567206 -7.53148772 13.85656434 -8.609375 15.09765625 C-9.16560547 15.73590332 -9.72183594 16.37415039 -10.29492188 17.03173828 C-12.00733729 19.00846982 -13.70162367 20.99933406 -15.390625 22.99609375 C-15.93283691 23.63562988 -16.47504883 24.27516602 -17.03369141 24.93408203 C-18.07978674 26.16891749 -19.12379696 27.40552294 -20.16552734 28.64404297 C-23.77603708 32.88801854 -23.77603708 32.88801854 -26 34 C-24.57399345 30.88104971 -22.85384269 28.40342188 -20.6875 25.75 C-19.98625 24.88632812 -19.285 24.02265625 -18.5625 23.1328125 C-18.16417969 22.64586914 -17.76585937 22.15892578 -17.35546875 21.65722656 C-15.21104462 19.03540542 -13.07518859 16.40662619 -10.9387207 13.77832031 C-9.78739898 12.3626424 -8.63492535 10.94790037 -7.48120117 9.53417969 C-4.92623644 6.39869812 -2.3872213 3.26672389 0 0 Z " fill="#DC6778" transform="translate(72,34)"/>
<path d="M0 0 C0.33 0 0.66 0 1 0 C1.43460538 6.1931266 0.88594968 10.06737038 -3 15 C-8.94219029 20.94219029 -14.24931385 22.09613448 -22.4375 22.125 C-24.2918612 22.09314594 -26.1461748 22.05479286 -28 22 C-28 21.67 -28 21.34 -28 21 C-24.37 20.67 -20.74 20.34 -17 20 C-19.31 19.67 -21.62 19.34 -24 19 C-24 18.67 -24 18.34 -24 18 C-23.29875 17.97421875 -22.5975 17.9484375 -21.875 17.921875 C-15.54046231 17.54317981 -10.19692552 16.84866654 -5 13 C-1.39903279 8.84503784 -0.43513819 5.43922743 0 0 Z " fill="#1F1544" transform="translate(94,69)"/>
<path d="M0 0 C4.55555556 0.55555556 4.55555556 0.55555556 6 2 C6.125 5 6.125 5 6 8 C5 9 5 9 2 9.125 C-1 9 -1 9 -2 8 C-2.1875 5.0625 -2.1875 5.0625 -2 2 C-1.34 1.34 -0.68 0.68 0 0 Z " fill="#DD9B4E" transform="translate(75,25)"/>
<path d="M0 0 C4.77538857 4.3881949 7.63414865 8.02092473 8.4375 14.5625 C7.92042431 18.62523757 6.95642034 20.20782524 4 23 C1.75 23.8125 1.75 23.8125 0 24 C0.639375 23.29875 1.27875 22.5975 1.9375 21.875 C4.32665604 18.54466128 5 17.09603703 5 13 C3.89233873 9.55872228 2.46575553 6.30079056 1 3 C0.67 2.01 0.34 1.02 0 0 Z " fill="#D58836" transform="translate(78,56)"/>
<path d="M0 0 C0.33 0 0.66 0 1 0 C1 9.57 1 19.14 1 29 C0.67 29 0.34 29 0 29 C-0.06058594 27.86820313 -0.12117188 26.73640625 -0.18359375 25.5703125 C-0.26799917 24.08852855 -0.35264717 22.6067584 -0.4375 21.125 C-0.47681641 20.37863281 -0.51613281 19.63226563 -0.55664062 18.86328125 C-0.71573624 14.80013136 -0.71573624 14.80013136 -2 11 C-1.34 11 -0.68 11 0 11 C0 9.02 0 7.04 0 5 C-1.65 6.32 -3.3 7.64 -5 9 C-5.66 8.67 -6.32 8.34 -7 8 C-5.85760183 6.66372225 -4.71098945 5.33104612 -3.5625 4 C-2.92441406 3.2575 -2.28632812 2.515 -1.62890625 1.75 C-1.09136719 1.1725 -0.55382812 0.595 0 0 Z " fill="#24204C" transform="translate(73,37)"/>
<path d="M0 0 C6 8 6 8 6 12 C4.02 12 2.04 12 0 12 C0 8.04 0 4.08 0 0 Z " fill="#CFCFCF" transform="translate(55,95)"/>
<path d="M0 0 C0 3.51449043 -0.50263848 3.95157884 -2.73828125 6.50390625 C-3.59776367 7.49100586 -3.59776367 7.49100586 -4.47460938 8.49804688 C-5.08111328 9.17931641 -5.68761719 9.86058594 -6.3125 10.5625 C-7.20485352 11.59020508 -7.20485352 11.59020508 -8.11523438 12.63867188 C-10.65494052 15.53024792 -12.77368625 17.84912417 -16 20 C-14.70051302 17.19338396 -13.27446717 14.95117502 -11.25 12.6171875 C-10.7240625 12.00746094 -10.198125 11.39773437 -9.65625 10.76953125 C-9.1096875 10.14433594 -8.563125 9.51914062 -8 8.875 C-7.4534375 8.24207031 -6.906875 7.60914063 -6.34375 6.95703125 C-4.27933167 4.57384244 -2.23028116 2.23028116 0 0 Z " fill="#25264D" transform="translate(64,48)"/>
<path d="M0 0 C0.33 0 0.66 0 1 0 C1.66 5.61 2.32 11.22 3 17 C2.34 17.33 1.68 17.66 1 18 C-1.58948774 11.20607517 -2.43710362 6.92650502 0 0 Z " fill="#47344F" transform="translate(15,41)"/>
<path d="M0 0 C0.66 0 1.32 0 2 0 C2.08004482 3.5219721 2.04005702 6.61981469 1 10 C0.236875 9.34 -0.52625 8.68 -1.3125 8 C-3.84277939 5.70149462 -3.84277939 5.70149462 -7 6 C-5.62209707 3.24419414 -3.62850007 2.51138754 -1 1 C-0.67 0.67 -0.34 0.34 0 0 Z " fill="#6F524C" transform="translate(71,42)"/>
<path d="M0 0 C2.12472576 -0.05386629 4.24983652 -0.09273071 6.375 -0.125 C7.55835938 -0.14820312 8.74171875 -0.17140625 9.9609375 -0.1953125 C13 0 13 0 15 2 C11.45325997 3.18224668 9.02477005 2.89329634 5.3125 2.5625 C4.13300781 2.46066406 2.95351563 2.35882813 1.73828125 2.25390625 C0.38283203 2.12822266 0.38283203 2.12822266 -1 2 C-0.67 1.34 -0.34 0.68 0 0 Z " fill="#66AA97" transform="translate(30,31)"/>
<path d="M0 0 C0.33 1.32 0.66 2.64 1 4 C-2.46222615 5.06723961 -5.64039266 5.10173486 -9.25 5.0625 C-10.32765625 5.05347656 -11.4053125 5.04445313 -12.515625 5.03515625 C-13.33546875 5.02355469 -14.1553125 5.01195313 -15 5 C-15 4.67 -15 4.34 -15 4 C-9.555 3.505 -9.555 3.505 -4 3 C-6.31 2.67 -8.62 2.34 -11 2 C-11 1.67 -11 1.34 -11 1 C-5.555 0.505 -5.555 0.505 0 0 Z " fill="#1F1144" transform="translate(81,86)"/>
<path d="M0 0 C1.58624235 0.42683239 3.1689098 0.86696158 4.75 1.3125 C6.07257812 1.67794922 6.07257812 1.67794922 7.421875 2.05078125 C10.05772505 3.02125331 11.85407326 4.21005644 14 6 C12 7 12 7 9.1796875 6.22265625 C8.08914062 5.83980469 6.99859375 5.45695312 5.875 5.0625 C4.77929688 4.68222656 3.68359375 4.30195312 2.5546875 3.91015625 C1.71164063 3.60980469 0.86859375 3.30945312 0 3 C0 2.01 0 1.02 0 0 Z " fill="#D18B3A" transform="translate(47,30)"/>
<path d="M0 0 C0.66 0.33 1.32 0.66 2 1 C-0.97 4.96 -0.97 4.96 -4 9 C-5.32 8.67 -6.64 8.34 -8 8 C-8 7.34 -8 6.68 -8 6 C-7.4225 5.7525 -6.845 5.505 -6.25 5.25 C-3.6997003 3.83316683 -1.98214299 2.12372463 0 0 Z " fill="#38495E" transform="translate(70,34)"/>
<path d="M0 0 C3.62613199 0.56959153 5.25517741 1.92374534 7.75 4.5625 C8.36359375 5.20316406 8.9771875 5.84382813 9.609375 6.50390625 C10.06828125 6.99761719 10.5271875 7.49132813 11 8 C10.34 8.66 9.68 9.32 9 10 C7.49702124 8.52386015 5.99768715 7.04400843 4.5 5.5625 C3.6646875 4.73878906 2.829375 3.91507813 1.96875 3.06640625 C0 1 0 1 0 0 Z " fill="#4DA79D" transform="translate(31,36)"/>
<path d="M0 0 C0.33 0 0.66 0 1 0 C1.061875 1.051875 1.12375 2.10375 1.1875 3.1875 C2.13408616 7.6291735 3.59156258 9.11593757 7 12 C6.67 12.66 6.34 13.32 6 14 C3.33601171 12.24615235 0.99903332 10.50140818 -1 8 C-1.33598606 4.9761255 -0.77687452 3.00391482 0 0 Z " fill="#423C53" transform="translate(78,39)"/>
<path d="M0 0 C2.1875 -0.4375 2.1875 -0.4375 5 0 C6.98441782 2.13995327 8.5023304 4.50175965 10 7 C7 7 7 7 5 5.0625 C4.34 4.381875 3.68 3.70125 3 3 C2.01 2.67 1.02 2.34 0 2 C0 1.34 0 0.68 0 0 Z " fill="#48958F" transform="translate(73,66)"/>
<path d="M0 0 C0.33 0 0.66 0 1 0 C1 2.64 1 5.28 1 8 C-0.32 8 -1.64 8 -3 8 C-2.37240135 5.07120629 -1.41377341 2.63904371 0 0 Z " fill="#C6C4C5" transform="translate(49,95)"/>
<path d="M0 0 C0.66 0.33 1.32 0.66 2 1 C1.67 1.99 1.34 2.98 1 4 C-0.65 4.33 -2.3 4.66 -4 5 C-4 4.01 -4 3.02 -4 2 C-2.125 0.9375 -2.125 0.9375 0 0 Z " fill="#31294E" transform="translate(86,84)"/>
<path d="M0 0 C0.66 0 1.32 0 2 0 C2 1.98 2 3.96 2 6 C0.68 5.34 -0.64 4.68 -2 4 C-1.34 2.68 -0.68 1.36 0 0 Z " fill="#65A48E" transform="translate(71,42)"/>
<path d="M0 0 C0.99 0.33 1.98 0.66 3 1 C2.34 2.65 1.68 4.3 1 6 C-0.5 4.625 -0.5 4.625 -2 3 C-2 2.34 -2 1.68 -2 1 C-1.34 0.67 -0.68 0.34 0 0 Z " fill="#53988F" transform="translate(59,42)"/>
</svg>
